<?xml version="1.0" encoding="UTF-8"?>
<svg id="LOGO" xmlns="http://www.w3.org/2000/svg" version="1.1" viewBox="0 0 648 648">
  <defs>
    <style>
      .cls-1 {
        fill: #1d428a;
      }

      .cls-1, .cls-2, .cls-3, .cls-4 {
        stroke-width: 0px;
      }

      .cls-2 {
        fill: #c8102e;
      }

      .cls-3 {
        fill: #fa4d00;
      }

      .cls-4 {
        fill: #fff;
      }
    </style>
  </defs>
  <g>
    <path class="cls-1" d="M101.5,479.6c0,40.6-14.1,51.4-40.1,51.4s-18.9-.9-25.5-2.4v-37.2h4.2c14.1,0,16-4.3,16-16.5V197.6h45.3v282Z"/>
    <path class="cls-1" d="M109.8,152.8c0,15.9-12.9,28.8-28.8,28.8s-28.8-12.9-28.8-28.8,12.9-28.8,28.8-28.8,28.8,12.9,28.8,28.8"/>
    <path class="cls-1" d="M242.3,433.1c0,15.9-12.9,28.8-28.8,28.8s-28.8-12.9-28.8-28.8,12.9-28.8,28.8-28.8,28.8,12.9,28.8,28.8"/>
    <path class="cls-1" d="M121.3,461.7V197.6h35.8c1.4,4.7,3.3,12.3,5.2,21.2,5.2-13.2,14.2-23.1,27.4-23.1s6.6.9,9.4,1.9v48.1h-14.1c-9.4,0-15.1,1.4-18.4,7.5v208.4h-45.3Z"/>
  </g>
  <g>
    <path class="cls-4" d="M388.9,117h-82.7c-20.2,0-36.6,16.4-36.6,36.6v280.1c0,20.2,16.4,36.6,36.6,36.6h82.7c20.2,0,36.6-16.4,36.6-36.6V153.6c0-20.2-16.4-36.6-36.6-36.6"/>
    <path class="cls-2" d="M368.4,181.8v1.2c2.6,1.5,3.9,2.7,6.4,4.3,6.7,4.3,15.1,11.8,14,37.8,1.9,5.7,2.7,16.8,4.5,20.4,3.5,7,5.9,11.5,6.9,18.1,0,0,1,10.2,2.3,11,7,1.6,5,2.3,6,3.5,1.1,1.4,5.1,1.3,5.1,5.1,1.4,1.9,2.4,3.8,3.2,5.8v-135.3c0-15.4-12.5-27.9-27.9-27.9h-26.7c4.3,1.5,6.7,3.3,8.1,6.2,3.5.3,7.6,8,1.2,19.5,2.8,1.9.6,4.7-1.4,8-.6,1-1.2,2.9-3.1,2.8-2.4,5.1-5.3,10.1-7.6,10.4-.7.8-1.2,3-.2,4,3.3,1.5,7.2,3.5,9.2,5.3"/>
    <path class="cls-2" d="M416.8,307.2c-3.6,9.2-12.6,15.7-23.2,15.7s-24.9-11.2-24.9-24.9,8.1-21.6,19-24.2c-2.9-7.2-8.9-18.8-10.7-22.7-1.7-3.8-5.8-27.5-6.7-32.2-.2-1-10.8,6.1-10.8,6.6-.6.6-7.9,19.7-8.2,20.7-.1.7-.2,3.2-.2,3.2,0,0,3.6.4,5.7,6.7,2,6.3,8.3,29.1,8.3,29.1,0,0-1.7,1.7-1.8,1.6,7.9,26.4,5.1,37.7,8.6,45.4,4.4,10.9,5.6,9.5,9.4,18.6,2.7,6.7,5.8,32.9,6.8,34.1,4.2,5.4,6.5,9.6,6.5,12.6s-3.6,12.1-2.3,17.4c.8,3.1,1.2,10,2.7,11.4,0,0,1.3,2.6.7,3.8-.2.4-.6,1-.4,1.5,2.3,8.3,9.9,22.4-2.3,29.8h.3c13.4-2.1,23.5-13.5,23.5-27.6v-126.4Z"/>
    <path class="cls-1" d="M385.4,428.3c-4.5-4-1.5-5.7-1.7-7.3-3-12.2-12.7-19.6-7.7-23.7-1.2-4-3.8-9.1-3.7-9.1-15.1-8.7-28-22.8-30.2-24.9-2.7-2.9-7.2-5.8-8-8.1-3.6-3.4-21.5-28.7-25.7-38l-7.2-1c-3.3-13.5-14.3-24.7-14.6-38.2,0-5.1,2.3-16,3.2-18.2.9-2.2,5.1-5.9,5.1-5.9v-3.6c-15.8.4-11.3-1.2-14-7.3-1.9-4.3-.5-5.2.1-8.1,2.1-8.7,9.2-22.1,12.1-28.2.9-3.1,3.9-10.5,3.9-10.5,11.8-24,16.2-22.2,30.2-23.6l.7-1c14-.6,11.7-1.7,13.7-15.2-2,.9-2.7-4.2-2.7-4.2-1.1-7.7,2.1-6.2,3.7-6.4.3-12.6,1.6-16.6,10.7-20.1h-47.2c-15.4,0-28,12.5-28,28v280.1c0,15.4,12.5,28,28,28h82.7c-9.5-5.1-3.9-14.9-3.6-33.3"/>
    <path class="cls-4" d="M321.9,444v-50.7h9.8c5.7,0,9.2,3.1,9.2,10.2v7.5c0,4.6-1.4,7-3.4,8.1,2,1.4,3.4,3.6,3.4,7.5v7.4c0,7-3.7,10.1-9.2,10.1h-9.8ZM328.6,422v15.6h2.6c2.3,0,3-1.2,3-3.6v-8.6c0-2.5-.8-3.4-3-3.4h-2.5ZM328.6,399.7v16.8h2.5c2.4,0,3-.9,3-3.6v-9.7c0-2.3-.7-3.4-3-3.4h-2.6ZM356.8,433.7h-6.1l-.9,10.3h-6.8l6.1-50.7h9.7l5.9,50.7h-7.1l-.8-10.3ZM353.8,399h-.3c-.4,6.1-1.3,16.8-1.5,20.2l-.8,8.7h5.3l-.8-8.7c-.3-3.5-1.3-14.1-1.8-20.2M301.8,444h-5.9v-50.7h9.4l7.5,41.6c-.6-10-1.5-21.9-1.5-32.2v-9.4h5.9v50.7h-8.6l-7.5-40.6c.5,9.4.7,16.8.7,24.6v16Z"/>
  </g>
  <g>
    <path class="cls-4" d="M575.5,117.5h-82.5c-20.1,0-36.4,16.4-36.4,36.4v279.2c0,20.1,16.3,36.5,36.4,36.5h82.4c20.1,0,36.5-16.4,36.5-36.5V153.9c0-20.1-16.4-36.4-36.5-36.4"/>
    <path class="cls-3" d="M598.1,136.9c1.5,3,2.2,6.3,2.1,9.8,1.2.5,1.5,2.7.8,5.6-.9,3.6-3.8,8.3-4.6,11.5-.8,3.2-1.6,7.3-2.6,9.9-1,2.5-3.3,4.3-3.7,5.9-.4,1.6-1.2,5.9-6.5,13.6-4.7,6.8-10.9,13.3-10.9,13.3,0,0-.7,2.5-2.4,5.2-3.4,5.1-5.5,8.1-6.4,11.1-.9,3-2.7,6.6-5.1,10.1-2.3,3.2-3.6,5-3.6,7.4,0,5.3-3.1,15.8-4.8,19.9-4.1,10.5-5.5,21.1-3.9,28.2,2,8.7,8.5,16.1,4.7,31.8-3.2,13.1-5.8,18.3-5.8,18.3,0,0,6.1,5.8,8.6,12.4,3.4,9.2,5.2,31.6,5.2,31.6,0,0,1,0,1.8.3.8.3,1.9,7,3.9,10.2,2,3.2,9.7,8.2,10.1,11.3.4,3-1.6,8-1.9,11.9-.1,1.3-.2,2.2,0,3.1.4,6.7,4.2,12.4,5.2,15.5,1.1,3.6,6.6,6,8.1,11.3,1.3,4.5,1.7,11.4-2.4,14,11.5-3.5,19.9-14.1,19.9-26.8V153.5c0-6.2-2-12-5.5-16.6M579.1,461.3c-1.2.1-2.3.2-3.5.2h-82.6c-15.4,0-27.9-12.5-27.9-28V153.5c0-15.5,12.5-28,27.9-28h82.6c1.6,0,3.1.1,4.6.4-9.4,0-17.6,6.8-19.3,16.4-1.9,10.8,5.3,21.1,16.1,23,1.5.3,3,.4,4.5.3.8.3,1.4.7,1.9,1.2.9.9,1.5,4,.9,5.6-.7,1.6-4.7,6.1-9.1,11.2-4.5,5.2-6.1,5.7-10.2,10.8-1.9,2.5-2.6,5.3-2.6,5.3,0,0-3.9,2.2-6.5,6-2.5,3.8-6,11.2-6,11.2,0,0-3,1.7-4.6,3.1-1.6,1.4-2.5,2.3-4.8,5.4,0-2.5.9-3.8,2.4-5,1.2-.9,3-5.5,2.8-10.7,2.5-1.3,4.1-4,4-7-.1-4.3-3.6-7.6-7.9-7.5-1.7,0-3.2.6-4.4,1.5-3-1.3-6.8-1.8-11.1-.8-1.5.3-3,1-3.3,2.1-.9.3-2.4.9-4,3.5-1.9,3.1-1,5-1.4,6.1-.3.9-3.4,2.9-1.9,9.6.6,2.7.5,4.7.7,5.8.2,1.1.8,1.7,1.9,2.1.7.3,1.4.5,2.1.7,1.1.3,1.6.6,1.8,1.6,0,.2,0,.5.1.7,0,.7,0,1.3,0,1.6,0,.4-.3.8-.7,1l-7.5.5c-4.5,0-6.7,1.5-6.7,1.5,0,0-4.4.4-7.3,2.3-2.9,1.9-6.6,6.7-7.3,11-.5,1.7-.8,3-1.7,4.6-.5,1-3.2,2.6-5.1,4.8-1.4-4.3-3.2-9.8-3.4-13.6,0-.2,0-.8,0-1,0-1.2,0-2.5.6-3.5,1.2-1.8,1.8-4,1.7-6.2-.1-1.6.2-3.1.6-4.6.3-1.2,0-2,.6-3,.3-.7.9-1.5.8-2.3-.2-.9-1.4-.9-2.1-.6-1.4.6-1.8,2.3-2.2,3.6-.3,1-.2,2.1-.8,2.4-.6.3-1.5.3-2-.4-.7-.8-.9-1.5-1.4-2.4-.5-1-2.2-6.6-4-9.6-.5-.6-.9-1.4-1.7-1.7-.5-.2-1.3.3-1,.9.7,1.7,1.5,3.4,2.1,5.2-.6-1.1-1.5-2.2-2.3-3.2-.6-.7-1.3-1.5-2.2-1.9-.5-.2-1.3,0-1.4.6-.1.4.2.8.5,1.2,1.2,1.6,2.3,3.3,3.3,5.1-.6-.5-1.3-1.1-2.1-1.3-.4,0-1,0-1.2.4-.1.4.1.8.4,1.1.9,1.1,2,2.2,2.8,3.5.6,1,1.2,1.9,1.8,2.9-.5-.3-1.4-.2-1.4.5.5,1.4,2,2.1,2.3,3.5,1.1,3.1.9,6.2.8,9.9-.1,3.7.7,13.7,0,18.2-1.2,7.1-.9,9.9,1,17.8,1.1,4.6,5.8,4.6,9.3,2.1,5.9-4.2,11.8-13,13.2-14.9,1.1-1.5,1.8-3.8,3-3.5,2.1,2.2,3.8,12.1,2.5,20.8-.3,1.9-1.2,5.1-1,6.1.2,1,1.2,1.5,1.2,1.8-.2,6.5-4.4,8-5.7,14.8-1.3,7-.6,11.6.9,18.4,1.5,6.8,4.7,13.6,7.7,18.6,2.9,5,3.6,8.6,3.6,8.6h2.4c0,0,4,14.4,11.8,25.5,22.7,32,30.5,46.2,32.3,49.5,1.6,2.8-.4,3-.4,4.5,0,1.5,1.2,2.9,5,5.3,3.8,2.4,7.2,10.4,8.6,14.8,1.3,3.9,4.1,11.1,9.3,11.9"/>
    <path class="cls-4" d="M485.9,434.3l-2.6,9h-5.1l-4.1-12.8h4.2l2.5,9.1,2.5-9.1h5.2l2.5,9.1,2.5-9.1h4.2l-4.1,12.8h-5.2l-2.5-9ZM511.9,439.1v-8.7h3.8v12.8h-5.4l-7.2-8.7v8.7h-3.8v-12.8h5.4l7.3,8.7ZM535.6,439.7c0,2.6-2.1,3.6-5.3,3.6h-11.3v-12.8h10.2c3.5,0,5.5.9,5.5,3.4s-.8,2.3-1.8,2.7c0,0,0,0,0,0s0,0,0,0c1.6.2,2.8,1.2,2.8,3M530.7,434.6c0-.6-.4-.9-1.5-.9h-6.4v1.8h6.4c1.1,0,1.5-.3,1.5-.9M522.7,438.2v1.8h7.5c1,0,1.4-.4,1.4-1s-.4-.8-1.4-.8h-7.5ZM549.1,440.5h-7.2l-1.4,2.8h-4.6l6.9-12.8h5.2l7.1,12.8h-4.6l-1.4-2.8ZM543.5,437.4h4l-2-3.8-2,3.8Z"/>
  </g>
</svg>