<svg xmlns="http://www.w3.org/2000/svg" viewBox="0 0 600 600" width="600" height="600">
  <!-- Background -->
  <rect width="100%" height="100%" fill="white"></rect>

  <!-- Running Figure -->
  <path d="M220 160c0-22 18-40 40-40s40 18 40 40-18 40-40 40-40-18-40-40z" fill="#0b3c66"></path>
  <path d="M260 200c30 0 70 40 50 60l-30 30 50 20-10 40-70-30 10-50-20-20c-20-20 0-50 20-50z" fill="#0b3c66"></path>

  <!-- Swoosh -->
  <path d="M320 180c60 20 100 40 120 80" stroke="#ff671f" stroke-width="20" fill="none"></path>
  <path d="M320 200c60 30 100 50 100 80" stroke="#046a38" stroke-width="20" fill="none"></path>

  <!-- Bridge -->
  <path d="M100 380h400v60H100z" fill="#f7931e"></path>
  <circle cx="300" cy="380" r="30" fill="white" stroke="black" stroke-width="3"></circle>
  <path d="M300 352c10 10 10 48 0 56-10-8-10-46 0-56z" stroke="#000080" fill="none" stroke-width="2"></path>
  <path d="M120 440a40 40 0 0 1 80 0h-80zM240 440a40 40 0 0 1 80 0h-80zM360 440a40 40 0 0 1 80 0h-80zM480 440a40 40 0 0 1 80 0h-80z" fill="white"></path>

  <!-- Text -->
  <text x="300" y="520" font-family="Segoe UI, sans-serif" font-size="48" fill="#0b3c66" text-anchor="middle">
    KhelSetu
  </text>
</svg>
